<mxfile host="app.diagrams.net" modified="2022-01-05T09:16:54.440Z" agent="5.0 (Windows NT 10.0; Win64; x64) AppleWebKit/537.36 (KHTML, like Gecko) Chrome/95.0.4638.54 Safari/537.36" etag="hQDrgdID4AcOvx_Rt6X8" version="16.2.1" type="github">
  <diagram id="9-FvxQDjEBou1wWmNp5G" name="第 1 页">
    <mxGraphModel dx="3793" dy="1809" grid="1" gridSize="10" guides="1" tooltips="1" connect="1" arrows="1" fold="1" page="1" pageScale="1" pageWidth="827" pageHeight="1169" math="0" shadow="0">
      <root>
        <mxCell id="0" />
        <mxCell id="1" parent="0" />
        <mxCell id="OYy-x_k3-v6llGjaAuk5-139" value="分机频道2" style="shape=umlLifeline;perimeter=lifelinePerimeter;whiteSpace=wrap;html=1;container=1;collapsible=0;recursiveResize=0;outlineConnect=0;rounded=1;shadow=0;comic=0;labelBackgroundColor=none;strokeWidth=1;fontFamily=Verdana;fontSize=12;align=center;fillColor=#e1d5e7;strokeColor=#9673a6;" vertex="1" parent="1">
          <mxGeometry x="70" y="303" width="120" height="1790" as="geometry" />
        </mxCell>
        <mxCell id="OYy-x_k3-v6llGjaAuk5-140" style="edgeStyle=orthogonalEdgeStyle;rounded=0;orthogonalLoop=1;jettySize=auto;html=1;" edge="1" parent="OYy-x_k3-v6llGjaAuk5-139" source="OYy-x_k3-v6llGjaAuk5-141" target="OYy-x_k3-v6llGjaAuk5-143">
          <mxGeometry relative="1" as="geometry" />
        </mxCell>
        <mxCell id="OYy-x_k3-v6llGjaAuk5-141" value="&lt;p class=&quot;MsoNormal&quot;&gt;&lt;span style=&quot;font-size: 9.0000pt&quot;&gt;振铃&lt;/span&gt;&lt;/p&gt;" style="rounded=1;whiteSpace=wrap;html=1;fillColor=#dae8fc;strokeColor=#6c8ebf;" vertex="1" parent="OYy-x_k3-v6llGjaAuk5-139">
          <mxGeometry y="242" width="120" height="60" as="geometry" />
        </mxCell>
        <mxCell id="OYy-x_k3-v6llGjaAuk5-142" style="edgeStyle=orthogonalEdgeStyle;rounded=0;orthogonalLoop=1;jettySize=auto;html=1;" edge="1" parent="OYy-x_k3-v6llGjaAuk5-139" source="OYy-x_k3-v6llGjaAuk5-143" target="OYy-x_k3-v6llGjaAuk5-144">
          <mxGeometry relative="1" as="geometry" />
        </mxCell>
        <mxCell id="OYy-x_k3-v6llGjaAuk5-143" value="&lt;p class=&quot;MsoNormal&quot;&gt;&lt;span style=&quot;font-size: 9.0000pt&quot;&gt;应答&lt;/span&gt;&lt;/p&gt;" style="rounded=1;whiteSpace=wrap;html=1;fillColor=#dae8fc;strokeColor=#6c8ebf;" vertex="1" parent="OYy-x_k3-v6llGjaAuk5-139">
          <mxGeometry y="400" width="120" height="60" as="geometry" />
        </mxCell>
        <mxCell id="OYy-x_k3-v6llGjaAuk5-144" value="&lt;p class=&quot;MsoNormal&quot;&gt;&lt;span style=&quot;font-size: 9pt&quot;&gt;挂机&lt;/span&gt;&lt;/p&gt;" style="rounded=1;whiteSpace=wrap;html=1;fillColor=#dae8fc;strokeColor=#6c8ebf;" vertex="1" parent="OYy-x_k3-v6llGjaAuk5-139">
          <mxGeometry y="892" width="120" height="60" as="geometry" />
        </mxCell>
        <mxCell id="OYy-x_k3-v6llGjaAuk5-145" value="&lt;p class=&quot;MsoNormal&quot;&gt;通话&lt;/p&gt;" style="rounded=1;whiteSpace=wrap;html=1;fillColor=#dae8fc;strokeColor=#6c8ebf;" vertex="1" parent="OYy-x_k3-v6llGjaAuk5-139">
          <mxGeometry y="670" width="120" height="60" as="geometry" />
        </mxCell>
        <mxCell id="OYy-x_k3-v6llGjaAuk5-146" value="" style="endArrow=classic;html=1;rounded=0;" edge="1" parent="1">
          <mxGeometry width="50" height="50" relative="1" as="geometry">
            <mxPoint x="-269" y="390" as="sourcePoint" />
            <mxPoint x="-93" y="390" as="targetPoint" />
          </mxGeometry>
        </mxCell>
        <mxCell id="OYy-x_k3-v6llGjaAuk5-147" style="edgeStyle=orthogonalEdgeStyle;rounded=0;orthogonalLoop=1;jettySize=auto;html=1;" edge="1" parent="1" source="OYy-x_k3-v6llGjaAuk5-201">
          <mxGeometry relative="1" as="geometry">
            <mxPoint x="304" y="1773" as="targetPoint" />
          </mxGeometry>
        </mxCell>
        <mxCell id="OYy-x_k3-v6llGjaAuk5-148" value="" style="endArrow=classic;html=1;rounded=0;" edge="1" parent="1">
          <mxGeometry width="50" height="50" relative="1" as="geometry">
            <mxPoint x="129.4473684210525" y="530" as="sourcePoint" />
            <mxPoint x="300" y="530" as="targetPoint" />
          </mxGeometry>
        </mxCell>
        <mxCell id="OYy-x_k3-v6llGjaAuk5-149" value="呼出" style="text;html=1;align=center;verticalAlign=middle;resizable=0;points=[];autosize=1;strokeColor=none;fillColor=none;" vertex="1" parent="1">
          <mxGeometry x="185" y="500" width="40" height="20" as="geometry" />
        </mxCell>
        <mxCell id="OYy-x_k3-v6llGjaAuk5-150" value="" style="endArrow=none;dashed=1;html=1;dashPattern=1 3;strokeWidth=2;rounded=0;" edge="1" parent="1">
          <mxGeometry width="50" height="50" relative="1" as="geometry">
            <mxPoint x="-90.05263157894751" y="444" as="sourcePoint" />
            <mxPoint x="129.5" y="444" as="targetPoint" />
            <Array as="points">
              <mxPoint x="-80" y="444" />
            </Array>
          </mxGeometry>
        </mxCell>
        <mxCell id="OYy-x_k3-v6llGjaAuk5-151" style="edgeStyle=orthogonalEdgeStyle;rounded=0;orthogonalLoop=1;jettySize=auto;html=1;" edge="1" parent="1" source="OYy-x_k3-v6llGjaAuk5-204">
          <mxGeometry relative="1" as="geometry">
            <mxPoint x="-272" y="1723" as="targetPoint" />
          </mxGeometry>
        </mxCell>
        <mxCell id="OYy-x_k3-v6llGjaAuk5-152" value="SIP Phone1" style="text;html=1;strokeColor=none;fillColor=none;align=center;verticalAlign=middle;whiteSpace=wrap;rounded=0;" vertex="1" parent="1">
          <mxGeometry x="-302" y="263" width="60" height="30" as="geometry" />
        </mxCell>
        <mxCell id="OYy-x_k3-v6llGjaAuk5-153" value="SIP Phone2" style="text;html=1;strokeColor=none;fillColor=none;align=center;verticalAlign=middle;whiteSpace=wrap;rounded=0;" vertex="1" parent="1">
          <mxGeometry x="274" y="263" width="60" height="30" as="geometry" />
        </mxCell>
        <mxCell id="OYy-x_k3-v6llGjaAuk5-154" style="edgeStyle=orthogonalEdgeStyle;rounded=0;orthogonalLoop=1;jettySize=auto;html=1;dashed=1;" edge="1" parent="1" source="OYy-x_k3-v6llGjaAuk5-222">
          <mxGeometry relative="1" as="geometry">
            <mxPoint x="-419.99999999999955" y="494" as="targetPoint" />
          </mxGeometry>
        </mxCell>
        <mxCell id="OYy-x_k3-v6llGjaAuk5-155" value="&lt;span style=&quot;color: rgb(0, 0, 0); font-family: helvetica; font-size: 9pt; font-style: normal; font-weight: 400; letter-spacing: normal; text-align: center; text-indent: 0px; text-transform: none; word-spacing: 0px; background-color: rgb(248, 249, 250);&quot;&gt;(O&lt;/span&gt;&lt;span style=&quot;color: rgb(0, 0, 0); font-family: helvetica; font-size: 9pt; font-style: normal; font-weight: 400; letter-spacing: normal; text-align: center; text-indent: 0px; text-transform: none; word-spacing: 0px; background-color: rgb(248, 249, 250);&quot;&gt;nRingbackEvent)&lt;/span&gt;" style="text;whiteSpace=wrap;html=1;" vertex="1" parent="1">
          <mxGeometry x="-400" y="461" width="130" height="30" as="geometry" />
        </mxCell>
        <mxCell id="OYy-x_k3-v6llGjaAuk5-156" style="edgeStyle=orthogonalEdgeStyle;rounded=0;orthogonalLoop=1;jettySize=auto;html=1;dashed=1;" edge="1" parent="1" source="OYy-x_k3-v6llGjaAuk5-141">
          <mxGeometry relative="1" as="geometry">
            <mxPoint x="450" y="575" as="targetPoint" />
          </mxGeometry>
        </mxCell>
        <mxCell id="OYy-x_k3-v6llGjaAuk5-157" value="&lt;span style=&quot;color: rgb(0 , 0 , 0) ; font-family: &amp;#34;helvetica&amp;#34; ; font-size: 9pt ; font-style: normal ; font-weight: 400 ; letter-spacing: normal ; text-align: center ; text-indent: 0px ; text-transform: none ; word-spacing: 0px ; background-color: rgb(248 , 249 , 250)&quot;&gt;(O&lt;/span&gt;&lt;span style=&quot;color: rgb(0 , 0 , 0) ; font-family: &amp;#34;helvetica&amp;#34; ; font-size: 9pt ; font-style: normal ; font-weight: 400 ; letter-spacing: normal ; text-align: center ; text-indent: 0px ; text-transform: none ; word-spacing: 0px ; background-color: rgb(248 , 249 , 250)&quot;&gt;nRingEvent)&lt;/span&gt;" style="text;whiteSpace=wrap;html=1;" vertex="1" parent="1">
          <mxGeometry x="320" y="545" width="100" height="30" as="geometry" />
        </mxCell>
        <mxCell id="OYy-x_k3-v6llGjaAuk5-158" value="" style="endArrow=classic;html=1;rounded=0;" edge="1" parent="1" target="OYy-x_k3-v6llGjaAuk5-139">
          <mxGeometry width="50" height="50" relative="1" as="geometry">
            <mxPoint x="300" y="663" as="sourcePoint" />
            <mxPoint x="-10" y="583" as="targetPoint" />
          </mxGeometry>
        </mxCell>
        <mxCell id="OYy-x_k3-v6llGjaAuk5-159" value="SIP终端应答" style="text;html=1;align=center;verticalAlign=middle;resizable=0;points=[];autosize=1;strokeColor=none;fillColor=none;" vertex="1" parent="1">
          <mxGeometry x="170" y="643" width="80" height="20" as="geometry" />
        </mxCell>
        <mxCell id="OYy-x_k3-v6llGjaAuk5-160" value="" style="endArrow=classic;html=1;rounded=0;dashed=1;" edge="1" parent="1">
          <mxGeometry width="50" height="50" relative="1" as="geometry">
            <mxPoint x="190.00000000000045" y="730" as="sourcePoint" />
            <mxPoint x="450" y="730" as="targetPoint" />
          </mxGeometry>
        </mxCell>
        <mxCell id="OYy-x_k3-v6llGjaAuk5-161" value="&lt;span style=&quot;color: rgb(0, 0, 0); font-family: helvetica; font-size: 9pt; font-style: normal; font-weight: 400; letter-spacing: normal; text-align: center; text-indent: 0px; text-transform: none; word-spacing: 0px; background-color: rgb(248, 249, 250);&quot;&gt;(&lt;/span&gt;&lt;span style=&quot;color: rgb(0, 0, 0); font-family: helvetica; font-size: 9pt; font-style: normal; font-weight: 400; letter-spacing: normal; text-align: center; text-indent: 0px; text-transform: none; word-spacing: 0px; background-color: rgb(248, 249, 250);&quot;&gt;O&lt;/span&gt;&lt;span style=&quot;color: rgb(0, 0, 0); font-family: helvetica; font-size: 9pt; font-style: normal; font-weight: 400; letter-spacing: normal; text-align: center; text-indent: 0px; text-transform: none; word-spacing: 0px; background-color: rgb(248, 249, 250);&quot;&gt;nAnswerEvent&lt;/span&gt;&lt;span style=&quot;color: rgb(0, 0, 0); font-family: helvetica; font-size: 9pt; font-style: normal; font-weight: 400; letter-spacing: normal; text-align: center; text-indent: 0px; text-transform: none; word-spacing: 0px; background-color: rgb(248, 249, 250);&quot;&gt;)&lt;/span&gt;" style="text;whiteSpace=wrap;html=1;" vertex="1" parent="1">
          <mxGeometry x="310" y="703" width="120" height="30" as="geometry" />
        </mxCell>
        <mxCell id="OYy-x_k3-v6llGjaAuk5-162" value="" style="endArrow=classic;html=1;rounded=0;dashed=1;exitX=0;exitY=0.5;exitDx=0;exitDy=0;" edge="1" parent="1" source="OYy-x_k3-v6llGjaAuk5-224">
          <mxGeometry width="50" height="50" relative="1" as="geometry">
            <mxPoint x="-92" y="818" as="sourcePoint" />
            <mxPoint x="-422" y="818" as="targetPoint" />
          </mxGeometry>
        </mxCell>
        <mxCell id="OYy-x_k3-v6llGjaAuk5-163" value="&lt;span style=&quot;color: rgb(0 , 0 , 0) ; font-family: &amp;#34;helvetica&amp;#34; ; font-size: 9pt ; font-style: normal ; font-weight: 400 ; letter-spacing: normal ; text-align: center ; text-indent: 0px ; text-transform: none ; word-spacing: 0px ; background-color: rgb(248 , 249 , 250)&quot;&gt;(&lt;/span&gt;&lt;span style=&quot;color: rgb(0 , 0 , 0) ; font-family: &amp;#34;helvetica&amp;#34; ; font-size: 9pt ; font-style: normal ; font-weight: 400 ; letter-spacing: normal ; text-align: center ; text-indent: 0px ; text-transform: none ; word-spacing: 0px ; background-color: rgb(248 , 249 , 250)&quot;&gt;O&lt;/span&gt;&lt;span style=&quot;color: rgb(0 , 0 , 0) ; font-family: &amp;#34;helvetica&amp;#34; ; font-size: 9pt ; font-style: normal ; font-weight: 400 ; letter-spacing: normal ; text-align: center ; text-indent: 0px ; text-transform: none ; word-spacing: 0px ; background-color: rgb(248 , 249 , 250)&quot;&gt;nAnsweredEvent&lt;/span&gt;&lt;span style=&quot;color: rgb(0 , 0 , 0) ; font-family: &amp;#34;helvetica&amp;#34; ; font-size: 9pt ; font-style: normal ; font-weight: 400 ; letter-spacing: normal ; text-align: center ; text-indent: 0px ; text-transform: none ; word-spacing: 0px ; background-color: rgb(248 , 249 , 250)&quot;&gt;)&lt;/span&gt;" style="text;whiteSpace=wrap;html=1;" vertex="1" parent="1">
          <mxGeometry x="-402" y="790" width="170" height="30" as="geometry" />
        </mxCell>
        <mxCell id="OYy-x_k3-v6llGjaAuk5-164" value="" style="endArrow=none;dashed=1;html=1;dashPattern=1 3;strokeWidth=2;rounded=0;" edge="1" parent="1">
          <mxGeometry width="50" height="50" relative="1" as="geometry">
            <mxPoint x="-89.99999999999955" y="629" as="sourcePoint" />
            <mxPoint x="129.5" y="629" as="targetPoint" />
            <Array as="points">
              <mxPoint x="-80" y="629" />
            </Array>
          </mxGeometry>
        </mxCell>
        <mxCell id="OYy-x_k3-v6llGjaAuk5-165" value="&lt;h1&gt;坐席拨打坐席的呼叫状态变迁流程图&lt;/h1&gt;" style="text;html=1;strokeColor=none;fillColor=none;spacing=5;spacingTop=-20;whiteSpace=wrap;overflow=hidden;rounded=0;" vertex="1" parent="1">
          <mxGeometry x="-185" y="20" width="410" height="130" as="geometry" />
        </mxCell>
        <mxCell id="OYy-x_k3-v6llGjaAuk5-166" value="" style="group" vertex="1" connectable="0" parent="1">
          <mxGeometry x="-530" y="293" width="220" height="60" as="geometry" />
        </mxCell>
        <mxCell id="OYy-x_k3-v6llGjaAuk5-167" value="" style="rounded=1;whiteSpace=wrap;html=1;gradientColor=#ffffff;" vertex="1" parent="OYy-x_k3-v6llGjaAuk5-166">
          <mxGeometry width="220" height="60" as="geometry" />
        </mxCell>
        <mxCell id="OYy-x_k3-v6llGjaAuk5-168" value="" style="fontColor=#0066CC;verticalAlign=top;verticalLabelPosition=bottom;labelPosition=center;align=center;html=1;outlineConnect=0;fillColor=#CCCCCC;strokeColor=#6881B3;gradientColor=none;gradientDirection=north;strokeWidth=2;shape=mxgraph.networks.pc;" vertex="1" parent="OYy-x_k3-v6llGjaAuk5-166">
          <mxGeometry x="134" y="10" width="50" height="45" as="geometry" />
        </mxCell>
        <mxCell id="OYy-x_k3-v6llGjaAuk5-169" value="" style="sketch=0;aspect=fixed;pointerEvents=1;shadow=0;dashed=0;html=1;strokeColor=none;labelPosition=center;verticalLabelPosition=bottom;verticalAlign=top;align=center;fillColor=#00188D;shape=mxgraph.mscae.enterprise.android_phone" vertex="1" parent="OYy-x_k3-v6llGjaAuk5-166">
          <mxGeometry x="54" y="7.5" width="30" height="50" as="geometry" />
        </mxCell>
        <mxCell id="OYy-x_k3-v6llGjaAuk5-170" value="" style="group" vertex="1" connectable="0" parent="1">
          <mxGeometry x="350" y="293" width="200" height="60" as="geometry" />
        </mxCell>
        <mxCell id="OYy-x_k3-v6llGjaAuk5-171" value="" style="rounded=1;whiteSpace=wrap;html=1;gradientColor=#ffffff;" vertex="1" parent="OYy-x_k3-v6llGjaAuk5-170">
          <mxGeometry width="200" height="60" as="geometry" />
        </mxCell>
        <mxCell id="OYy-x_k3-v6llGjaAuk5-172" value="" style="fontColor=#0066CC;verticalAlign=top;verticalLabelPosition=bottom;labelPosition=center;align=center;html=1;outlineConnect=0;fillColor=#CCCCCC;strokeColor=#6881B3;gradientColor=none;gradientDirection=north;strokeWidth=2;shape=mxgraph.networks.pc;" vertex="1" parent="OYy-x_k3-v6llGjaAuk5-170">
          <mxGeometry x="26" y="10" width="50" height="45" as="geometry" />
        </mxCell>
        <mxCell id="OYy-x_k3-v6llGjaAuk5-173" value="" style="sketch=0;aspect=fixed;pointerEvents=1;shadow=0;dashed=0;html=1;strokeColor=none;labelPosition=center;verticalLabelPosition=bottom;verticalAlign=top;align=center;fillColor=#00188D;shape=mxgraph.mscae.enterprise.android_phone" vertex="1" parent="OYy-x_k3-v6llGjaAuk5-170">
          <mxGeometry x="106" y="5" width="30" height="50" as="geometry" />
        </mxCell>
        <mxCell id="OYy-x_k3-v6llGjaAuk5-174" style="edgeStyle=orthogonalEdgeStyle;rounded=0;orthogonalLoop=1;jettySize=auto;html=1;dashed=1;" edge="1" parent="1" source="OYy-x_k3-v6llGjaAuk5-167">
          <mxGeometry relative="1" as="geometry">
            <mxPoint x="-419.99999999999955" y="1720" as="targetPoint" />
          </mxGeometry>
        </mxCell>
        <mxCell id="OYy-x_k3-v6llGjaAuk5-175" style="edgeStyle=orthogonalEdgeStyle;rounded=0;orthogonalLoop=1;jettySize=auto;html=1;dashed=1;" edge="1" parent="1" source="OYy-x_k3-v6llGjaAuk5-171">
          <mxGeometry relative="1" as="geometry">
            <mxPoint x="450" y="1763" as="targetPoint" />
            <Array as="points">
              <mxPoint x="450" y="1363" />
            </Array>
          </mxGeometry>
        </mxCell>
        <mxCell id="OYy-x_k3-v6llGjaAuk5-176" value="" style="endArrow=classic;html=1;rounded=0;" edge="1" parent="1">
          <mxGeometry width="50" height="50" relative="1" as="geometry">
            <mxPoint x="300.5" y="1126" as="sourcePoint" />
            <mxPoint x="130.00000000000045" y="1126" as="targetPoint" />
          </mxGeometry>
        </mxCell>
        <mxCell id="OYy-x_k3-v6llGjaAuk5-177" value="SIP终端发起挂机" style="text;html=1;align=center;verticalAlign=middle;resizable=0;points=[];autosize=1;strokeColor=none;fillColor=none;" vertex="1" parent="1">
          <mxGeometry x="155" y="1103" width="110" height="20" as="geometry" />
        </mxCell>
        <mxCell id="OYy-x_k3-v6llGjaAuk5-178" value="" style="endArrow=classic;html=1;rounded=0;dashed=1;" edge="1" parent="1">
          <mxGeometry width="50" height="50" relative="1" as="geometry">
            <mxPoint x="190.00000000000045" y="1227" as="sourcePoint" />
            <mxPoint x="450" y="1227" as="targetPoint" />
          </mxGeometry>
        </mxCell>
        <mxCell id="OYy-x_k3-v6llGjaAuk5-179" value="&lt;span style=&quot;color: rgb(0, 0, 0); font-family: helvetica; font-size: 9pt; font-style: normal; font-weight: 400; letter-spacing: normal; text-align: center; text-indent: 0px; text-transform: none; word-spacing: 0px; background-color: rgb(248, 249, 250);&quot;&gt;(&lt;/span&gt;&lt;span style=&quot;color: rgb(0, 0, 0); font-family: helvetica; font-size: 9pt; font-style: normal; font-weight: 400; letter-spacing: normal; text-align: center; text-indent: 0px; text-transform: none; word-spacing: 0px; background-color: rgb(248, 249, 250);&quot;&gt;O&lt;/span&gt;&lt;span style=&quot;color: rgb(0, 0, 0); font-family: helvetica; font-size: 9pt; font-style: normal; font-weight: 400; letter-spacing: normal; text-align: center; text-indent: 0px; text-transform: none; word-spacing: 0px; background-color: rgb(248, 249, 250);&quot;&gt;nHangupEvent&lt;/span&gt;&lt;span style=&quot;color: rgb(0, 0, 0); font-family: helvetica; font-size: 9pt; font-style: normal; font-weight: 400; letter-spacing: normal; text-align: center; text-indent: 0px; text-transform: none; word-spacing: 0px; background-color: rgb(248, 249, 250);&quot;&gt;)&lt;/span&gt;" style="text;whiteSpace=wrap;html=1;" vertex="1" parent="1">
          <mxGeometry x="319.5" y="1200" width="120" height="30" as="geometry" />
        </mxCell>
        <mxCell id="OYy-x_k3-v6llGjaAuk5-180" value="" style="endArrow=classic;html=1;rounded=0;dashed=1;" edge="1" parent="1">
          <mxGeometry width="50" height="50" relative="1" as="geometry">
            <mxPoint x="-149.99999999999955" y="1290" as="sourcePoint" />
            <mxPoint x="-422" y="1290" as="targetPoint" />
          </mxGeometry>
        </mxCell>
        <mxCell id="OYy-x_k3-v6llGjaAuk5-181" value="&lt;span style=&quot;color: rgb(0, 0, 0); font-family: helvetica; font-size: 9pt; font-style: normal; font-weight: 400; letter-spacing: normal; text-align: center; text-indent: 0px; text-transform: none; word-spacing: 0px; background-color: rgb(248, 249, 250);&quot;&gt;(&lt;/span&gt;&lt;span style=&quot;color: rgb(0, 0, 0); font-family: helvetica; font-size: 9pt; font-style: normal; font-weight: 400; letter-spacing: normal; text-align: center; text-indent: 0px; text-transform: none; word-spacing: 0px; background-color: rgb(248, 249, 250);&quot;&gt;O&lt;/span&gt;&lt;span style=&quot;color: rgb(0, 0, 0); font-family: helvetica; font-size: 9pt; font-style: normal; font-weight: 400; letter-spacing: normal; text-align: center; text-indent: 0px; text-transform: none; word-spacing: 0px; background-color: rgb(248, 249, 250);&quot;&gt;nHangupEvent&lt;/span&gt;&lt;span style=&quot;color: rgb(0, 0, 0); font-family: helvetica; font-size: 9pt; font-style: normal; font-weight: 400; letter-spacing: normal; text-align: center; text-indent: 0px; text-transform: none; word-spacing: 0px; background-color: rgb(248, 249, 250);&quot;&gt;)&lt;/span&gt;" style="text;whiteSpace=wrap;html=1;" vertex="1" parent="1">
          <mxGeometry x="-402" y="1260" width="120" height="30" as="geometry" />
        </mxCell>
        <mxCell id="OYy-x_k3-v6llGjaAuk5-182" value="" style="endArrow=classic;html=1;rounded=0;dashed=1;" edge="1" parent="1">
          <mxGeometry width="50" height="50" relative="1" as="geometry">
            <mxPoint x="190.00000000000045" y="1010" as="sourcePoint" />
            <mxPoint x="451.5" y="1010" as="targetPoint" />
          </mxGeometry>
        </mxCell>
        <mxCell id="OYy-x_k3-v6llGjaAuk5-183" value="" style="endArrow=classic;html=1;rounded=0;dashed=1;exitX=0;exitY=0.5;exitDx=0;exitDy=0;" edge="1" parent="1" source="OYy-x_k3-v6llGjaAuk5-227">
          <mxGeometry width="50" height="50" relative="1" as="geometry">
            <mxPoint x="-86" y="1008" as="sourcePoint" />
            <mxPoint x="-416" y="1008" as="targetPoint" />
          </mxGeometry>
        </mxCell>
        <mxCell id="OYy-x_k3-v6llGjaAuk5-184" value="&lt;p class=&quot;MsoNormal&quot;&gt;&lt;span style=&quot;font-size: 10.5000pt&quot;&gt;（On&lt;/span&gt;&lt;span style=&quot;font-size: 10.5000pt&quot;&gt;BridgeEvent）&lt;/span&gt;&lt;/p&gt;" style="text;whiteSpace=wrap;html=1;" vertex="1" parent="1">
          <mxGeometry x="310" y="970" width="120" height="50" as="geometry" />
        </mxCell>
        <mxCell id="OYy-x_k3-v6llGjaAuk5-185" value="&lt;p class=&quot;MsoNormal&quot;&gt;&lt;span style=&quot;font-size: 10.5000pt&quot;&gt;（On&lt;/span&gt;&lt;span style=&quot;font-size: 10.5000pt&quot;&gt;BridgeEvent）&lt;/span&gt;&lt;/p&gt;" style="text;whiteSpace=wrap;html=1;" vertex="1" parent="1">
          <mxGeometry x="-406" y="960" width="120" height="50" as="geometry" />
        </mxCell>
        <mxCell id="OYy-x_k3-v6llGjaAuk5-186" style="edgeStyle=orthogonalEdgeStyle;rounded=0;orthogonalLoop=1;jettySize=auto;html=1;" edge="1" parent="1" source="OYy-x_k3-v6llGjaAuk5-188">
          <mxGeometry relative="1" as="geometry">
            <mxPoint x="-89.99999999999955" y="293.0000000000002" as="targetPoint" />
          </mxGeometry>
        </mxCell>
        <mxCell id="OYy-x_k3-v6llGjaAuk5-187" style="edgeStyle=orthogonalEdgeStyle;rounded=0;orthogonalLoop=1;jettySize=auto;html=1;" edge="1" parent="1">
          <mxGeometry relative="1" as="geometry">
            <mxPoint x="132" y="293.0000000000002" as="targetPoint" />
            <mxPoint x="54.5" y="262.29999999999995" as="sourcePoint" />
            <Array as="points">
              <mxPoint x="132" y="262" />
            </Array>
          </mxGeometry>
        </mxCell>
        <mxCell id="OYy-x_k3-v6llGjaAuk5-188" value="SWITCH" style="verticalLabelPosition=bottom;sketch=0;aspect=fixed;html=1;verticalAlign=top;strokeColor=none;align=center;outlineConnect=0;shape=mxgraph.citrix.switch;gradientColor=#ffffff;" vertex="1" parent="1">
          <mxGeometry x="-29.5" y="241.5" width="92" height="41.5" as="geometry" />
        </mxCell>
        <mxCell id="OYy-x_k3-v6llGjaAuk5-189" style="edgeStyle=orthogonalEdgeStyle;rounded=0;orthogonalLoop=1;jettySize=auto;html=1;entryX=0;entryY=0.5;entryDx=0;entryDy=0;startArrow=classic;startFill=1;" edge="1" parent="1" source="OYy-x_k3-v6llGjaAuk5-227" target="OYy-x_k3-v6llGjaAuk5-145">
          <mxGeometry relative="1" as="geometry" />
        </mxCell>
        <mxCell id="OYy-x_k3-v6llGjaAuk5-190" value="" style="endArrow=classic;html=1;rounded=0;" edge="1" parent="1">
          <mxGeometry width="50" height="50" relative="1" as="geometry">
            <mxPoint x="-89.99999999999955" y="733" as="sourcePoint" />
            <mxPoint x="-269.99999999999955" y="733" as="targetPoint" />
          </mxGeometry>
        </mxCell>
        <mxCell id="OYy-x_k3-v6llGjaAuk5-191" value="应答" style="text;html=1;align=center;verticalAlign=middle;resizable=0;points=[];autosize=1;strokeColor=none;fillColor=none;" vertex="1" parent="1">
          <mxGeometry x="-200" y="713" width="40" height="20" as="geometry" />
        </mxCell>
        <mxCell id="OYy-x_k3-v6llGjaAuk5-192" value="" style="endArrow=classic;html=1;rounded=0;" edge="1" parent="1">
          <mxGeometry width="50" height="50" relative="1" as="geometry">
            <mxPoint x="-89.99999999999955" y="1226" as="sourcePoint" />
            <mxPoint x="-279.99999999999955" y="1226" as="targetPoint" />
          </mxGeometry>
        </mxCell>
        <mxCell id="OYy-x_k3-v6llGjaAuk5-193" value="挂机" style="text;html=1;align=center;verticalAlign=middle;resizable=0;points=[];autosize=1;strokeColor=none;fillColor=none;" vertex="1" parent="1">
          <mxGeometry x="-200" y="1200" width="40" height="20" as="geometry" />
        </mxCell>
        <mxCell id="OYy-x_k3-v6llGjaAuk5-194" value="" style="endArrow=classic;html=1;rounded=0;dashed=1;" edge="1" parent="1">
          <mxGeometry width="50" height="50" relative="1" as="geometry">
            <mxPoint x="-92" y="1419.23" as="sourcePoint" />
            <mxPoint x="-422" y="1419.23" as="targetPoint" />
          </mxGeometry>
        </mxCell>
        <mxCell id="OYy-x_k3-v6llGjaAuk5-195" value="&lt;p class=&quot;MsoNormal&quot;&gt;&lt;span style=&quot;font-size: 10.5000pt&quot;&gt;（&lt;/span&gt;&lt;span style=&quot;font-size: 10.5pt&quot;&gt;OnUnBridge&lt;/span&gt;&lt;span style=&quot;font-size: 10.5pt&quot;&gt;Event&lt;/span&gt;&lt;span style=&quot;font-size: 10.5pt&quot;&gt;）&lt;/span&gt;&lt;/p&gt;" style="text;whiteSpace=wrap;html=1;" vertex="1" parent="1">
          <mxGeometry x="-416" y="1370" width="120" height="40" as="geometry" />
        </mxCell>
        <mxCell id="OYy-x_k3-v6llGjaAuk5-196" value="" style="endArrow=classic;html=1;rounded=0;dashed=1;startArrow=none;" edge="1" parent="1" source="OYy-x_k3-v6llGjaAuk5-219">
          <mxGeometry width="50" height="50" relative="1" as="geometry">
            <mxPoint x="130" y="1413" as="sourcePoint" />
            <mxPoint x="451" y="1420" as="targetPoint" />
          </mxGeometry>
        </mxCell>
        <mxCell id="OYy-x_k3-v6llGjaAuk5-197" value="&lt;p class=&quot;MsoNormal&quot;&gt;&lt;span style=&quot;font-size: 10.5000pt&quot;&gt;（&lt;/span&gt;&lt;span style=&quot;font-size: 10.5pt&quot;&gt;OnUnBridge&lt;/span&gt;&lt;span style=&quot;font-size: 10.5pt&quot;&gt;Event&lt;/span&gt;&lt;span style=&quot;font-size: 10.5pt&quot;&gt;）&lt;/span&gt;&lt;/p&gt;" style="text;whiteSpace=wrap;html=1;" vertex="1" parent="1">
          <mxGeometry x="300" y="1370" width="120" height="40" as="geometry" />
        </mxCell>
        <mxCell id="OYy-x_k3-v6llGjaAuk5-198" value="" style="endArrow=none;html=1;rounded=0;dashed=1;endFill=0;startArrow=classic;startFill=1;fillColor=#d80073;strokeColor=#A50040;" edge="1" parent="1">
          <mxGeometry width="50" height="50" relative="1" as="geometry">
            <mxPoint x="130.00000000000045" y="1153" as="sourcePoint" />
            <mxPoint x="450.5" y="1153" as="targetPoint" />
          </mxGeometry>
        </mxCell>
        <mxCell id="OYy-x_k3-v6llGjaAuk5-199" value="或则控制接口发起挂机" style="text;html=1;align=center;verticalAlign=middle;resizable=0;points=[];autosize=1;strokeColor=none;fillColor=none;" vertex="1" parent="1">
          <mxGeometry x="310" y="1133" width="140" height="20" as="geometry" />
        </mxCell>
        <mxCell id="OYy-x_k3-v6llGjaAuk5-200" value="" style="group" vertex="1" connectable="0" parent="1">
          <mxGeometry x="249" y="298" width="79" height="50" as="geometry" />
        </mxCell>
        <mxCell id="OYy-x_k3-v6llGjaAuk5-201" value="" style="sketch=0;pointerEvents=1;shadow=0;dashed=0;html=1;strokeColor=none;fillColor=#505050;labelPosition=center;verticalLabelPosition=bottom;verticalAlign=top;outlineConnect=0;align=center;shape=mxgraph.office.devices.phone_traditional;" vertex="1" parent="OYy-x_k3-v6llGjaAuk5-200">
          <mxGeometry x="31" y="5" width="48" height="40" as="geometry" />
        </mxCell>
        <mxCell id="OYy-x_k3-v6llGjaAuk5-202" value="" style="sketch=0;aspect=fixed;pointerEvents=1;shadow=0;dashed=0;html=1;strokeColor=none;labelPosition=center;verticalLabelPosition=bottom;verticalAlign=top;align=center;fillColor=#00188D;shape=mxgraph.mscae.enterprise.android_phone" vertex="1" parent="OYy-x_k3-v6llGjaAuk5-200">
          <mxGeometry width="30" height="50" as="geometry" />
        </mxCell>
        <mxCell id="OYy-x_k3-v6llGjaAuk5-203" value="" style="group" vertex="1" connectable="0" parent="1">
          <mxGeometry x="-296" y="300" width="78" height="50" as="geometry" />
        </mxCell>
        <mxCell id="OYy-x_k3-v6llGjaAuk5-204" value="" style="sketch=0;pointerEvents=1;shadow=0;dashed=0;html=1;strokeColor=none;fillColor=#505050;labelPosition=center;verticalLabelPosition=bottom;verticalAlign=top;outlineConnect=0;align=center;shape=mxgraph.office.devices.phone_traditional;" vertex="1" parent="OYy-x_k3-v6llGjaAuk5-203">
          <mxGeometry y="3" width="48" height="40" as="geometry" />
        </mxCell>
        <mxCell id="OYy-x_k3-v6llGjaAuk5-205" value="" style="sketch=0;aspect=fixed;pointerEvents=1;shadow=0;dashed=0;html=1;strokeColor=none;labelPosition=center;verticalLabelPosition=bottom;verticalAlign=top;align=center;fillColor=#00188D;shape=mxgraph.mscae.enterprise.android_phone" vertex="1" parent="OYy-x_k3-v6llGjaAuk5-203">
          <mxGeometry x="48" width="30" height="50" as="geometry" />
        </mxCell>
        <mxCell id="OYy-x_k3-v6llGjaAuk5-206" value="" style="endArrow=classic;html=1;rounded=0;dashed=1;fillColor=#d80073;strokeColor=#A50040;" edge="1" parent="1">
          <mxGeometry width="50" height="50" relative="1" as="geometry">
            <mxPoint x="-413" y="412" as="sourcePoint" />
            <mxPoint x="-92.49999999999955" y="412" as="targetPoint" />
          </mxGeometry>
        </mxCell>
        <mxCell id="OYy-x_k3-v6llGjaAuk5-207" value="或则控制接口发起呼叫" style="text;html=1;align=center;verticalAlign=middle;resizable=0;points=[];autosize=1;strokeColor=none;fillColor=none;" vertex="1" parent="1">
          <mxGeometry x="-410" y="397" width="140" height="20" as="geometry" />
        </mxCell>
        <mxCell id="OYy-x_k3-v6llGjaAuk5-208" value="呼出" style="text;html=1;align=center;verticalAlign=middle;resizable=0;points=[];autosize=1;strokeColor=none;fillColor=none;" vertex="1" parent="1">
          <mxGeometry x="-218" y="416" width="40" height="20" as="geometry" />
        </mxCell>
        <mxCell id="OYy-x_k3-v6llGjaAuk5-209" value="" style="endArrow=classic;html=1;rounded=0;fillColor=#d80073;strokeColor=#A50040;" edge="1" parent="1">
          <mxGeometry width="50" height="50" relative="1" as="geometry">
            <mxPoint x="-91" y="434" as="sourcePoint" />
            <mxPoint x="-271" y="434" as="targetPoint" />
          </mxGeometry>
        </mxCell>
        <mxCell id="OYy-x_k3-v6llGjaAuk5-210" value="" style="endArrow=none;html=1;rounded=0;endFill=0;startArrow=classic;startFill=1;fillColor=#d80073;strokeColor=#A50040;" edge="1" parent="1">
          <mxGeometry width="50" height="50" relative="1" as="geometry">
            <mxPoint x="300.5" y="1172.4700000000003" as="sourcePoint" />
            <mxPoint x="130.00000000000045" y="1172.4700000000003" as="targetPoint" />
          </mxGeometry>
        </mxCell>
        <mxCell id="OYy-x_k3-v6llGjaAuk5-211" value="挂机" style="text;html=1;align=center;verticalAlign=middle;resizable=0;points=[];autosize=1;strokeColor=none;fillColor=none;" vertex="1" parent="1">
          <mxGeometry x="200" y="1153" width="40" height="20" as="geometry" />
        </mxCell>
        <mxCell id="OYy-x_k3-v6llGjaAuk5-212" value="" style="group" vertex="1" connectable="0" parent="1">
          <mxGeometry x="-30" y="1390" width="100" height="58" as="geometry" />
        </mxCell>
        <mxCell id="OYy-x_k3-v6llGjaAuk5-213" style="edgeStyle=orthogonalEdgeStyle;rounded=0;orthogonalLoop=1;jettySize=auto;html=1;entryX=0;entryY=0.5;entryDx=0;entryDy=0;startArrow=classic;startFill=1;" edge="1" parent="OYy-x_k3-v6llGjaAuk5-212">
          <mxGeometry relative="1" as="geometry">
            <mxPoint y="30" as="sourcePoint" />
            <mxPoint x="100" y="30" as="targetPoint" />
          </mxGeometry>
        </mxCell>
        <mxCell id="OYy-x_k3-v6llGjaAuk5-214" value="" style="shape=image;html=1;verticalAlign=top;verticalLabelPosition=bottom;labelBackgroundColor=#ffffff;imageAspect=0;aspect=fixed;image=https://cdn3.iconfinder.com/data/icons/flat-actions-icons-9/792/Close_Icon_Dark-128.png;gradientColor=#ffffff;" vertex="1" parent="OYy-x_k3-v6llGjaAuk5-212">
          <mxGeometry x="20" width="58" height="58" as="geometry" />
        </mxCell>
        <mxCell id="OYy-x_k3-v6llGjaAuk5-215" style="edgeStyle=orthogonalEdgeStyle;rounded=0;orthogonalLoop=1;jettySize=auto;html=1;startArrow=none;startFill=0;" edge="1" parent="1" source="OYy-x_k3-v6llGjaAuk5-144" target="OYy-x_k3-v6llGjaAuk5-219">
          <mxGeometry relative="1" as="geometry" />
        </mxCell>
        <mxCell id="OYy-x_k3-v6llGjaAuk5-216" value="" style="endArrow=none;html=1;rounded=0;dashed=1;" edge="1" parent="1" target="OYy-x_k3-v6llGjaAuk5-219">
          <mxGeometry width="50" height="50" relative="1" as="geometry">
            <mxPoint x="130.00000000000045" y="1413" as="sourcePoint" />
            <mxPoint x="450.5" y="1413" as="targetPoint" />
          </mxGeometry>
        </mxCell>
        <mxCell id="OYy-x_k3-v6llGjaAuk5-217" value="&lt;span style=&quot;color: rgb(0 , 0 , 0) ; font-family: &amp;#34;helvetica&amp;#34; ; font-size: 9pt ; font-style: normal ; font-weight: 400 ; letter-spacing: normal ; text-align: center ; text-indent: 0px ; text-transform: none ; word-spacing: 0px ; background-color: rgb(248 , 249 , 250)&quot;&gt;(&lt;/span&gt;&lt;span style=&quot;font-size: 10.5pt&quot;&gt;Call)&lt;/span&gt;" style="text;whiteSpace=wrap;html=1;" vertex="1" parent="1">
          <mxGeometry x="-245" y="387" width="130" height="30" as="geometry" />
        </mxCell>
        <mxCell id="OYy-x_k3-v6llGjaAuk5-218" value="&lt;span style=&quot;color: rgb(0 , 0 , 0) ; font-family: &amp;#34;helvetica&amp;#34; ; font-size: 9pt ; font-style: normal ; font-weight: 400 ; letter-spacing: normal ; text-align: center ; text-indent: 0px ; text-transform: none ; word-spacing: 0px ; background-color: rgb(248 , 249 , 250)&quot;&gt;(&lt;/span&gt;&lt;span style=&quot;font-size: 10.5pt&quot;&gt;Hangup&lt;/span&gt;&lt;span style=&quot;font-family: &amp;#34;helvetica&amp;#34; ; font-size: 9pt ; text-align: center&quot;&gt;)&lt;/span&gt;" style="text;whiteSpace=wrap;html=1;" vertex="1" parent="1">
          <mxGeometry x="197" y="1129" width="120" height="30" as="geometry" />
        </mxCell>
        <mxCell id="OYy-x_k3-v6llGjaAuk5-219" value="&lt;p class=&quot;MsoNormal&quot;&gt;通话结束&lt;/p&gt;" style="rounded=1;whiteSpace=wrap;html=1;fillColor=#dae8fc;strokeColor=#6c8ebf;" vertex="1" parent="1">
          <mxGeometry x="70" y="1390" width="120" height="60" as="geometry" />
        </mxCell>
        <mxCell id="OYy-x_k3-v6llGjaAuk5-220" value="分机频道1" style="shape=umlLifeline;perimeter=lifelinePerimeter;whiteSpace=wrap;html=1;container=1;collapsible=0;recursiveResize=0;outlineConnect=0;rounded=1;shadow=0;comic=0;labelBackgroundColor=none;strokeWidth=1;fontFamily=Verdana;fontSize=12;align=center;fillColor=#f8cecc;strokeColor=#b85450;" vertex="1" parent="1">
          <mxGeometry x="-149.5" y="303" width="120" height="1800" as="geometry" />
        </mxCell>
        <mxCell id="OYy-x_k3-v6llGjaAuk5-221" value="SIP终端呼入" style="text;html=1;align=center;verticalAlign=middle;resizable=0;points=[];autosize=1;strokeColor=none;fillColor=none;" vertex="1" parent="OYy-x_k3-v6llGjaAuk5-220">
          <mxGeometry x="-21.5" y="60" width="80" height="20" as="geometry" />
        </mxCell>
        <mxCell id="OYy-x_k3-v6llGjaAuk5-222" value="&lt;p class=&quot;MsoNormal&quot;&gt;&lt;span style=&quot;font-size: 9.0000pt&quot;&gt;回铃&lt;/span&gt;&lt;/p&gt;" style="rounded=1;whiteSpace=wrap;html=1;fillColor=#dae8fc;strokeColor=#6c8ebf;verticalAlign=middle;" vertex="1" parent="OYy-x_k3-v6llGjaAuk5-220">
          <mxGeometry y="161" width="120" height="60" as="geometry" />
        </mxCell>
        <mxCell id="OYy-x_k3-v6llGjaAuk5-223" style="edgeStyle=orthogonalEdgeStyle;rounded=0;orthogonalLoop=1;jettySize=auto;html=1;startArrow=none;startFill=0;" edge="1" parent="OYy-x_k3-v6llGjaAuk5-220" source="OYy-x_k3-v6llGjaAuk5-224" target="OYy-x_k3-v6llGjaAuk5-227">
          <mxGeometry relative="1" as="geometry" />
        </mxCell>
        <mxCell id="OYy-x_k3-v6llGjaAuk5-224" value="&lt;span&gt;被应答&lt;/span&gt;" style="rounded=1;whiteSpace=wrap;html=1;fillColor=#dae8fc;strokeColor=#6c8ebf;" vertex="1" parent="OYy-x_k3-v6llGjaAuk5-220">
          <mxGeometry y="480" width="120" height="60" as="geometry" />
        </mxCell>
        <mxCell id="OYy-x_k3-v6llGjaAuk5-225" style="edgeStyle=none;rounded=0;orthogonalLoop=1;jettySize=auto;html=1;" edge="1" parent="OYy-x_k3-v6llGjaAuk5-220" source="OYy-x_k3-v6llGjaAuk5-222" target="OYy-x_k3-v6llGjaAuk5-224">
          <mxGeometry relative="1" as="geometry" />
        </mxCell>
        <mxCell id="OYy-x_k3-v6llGjaAuk5-226" style="edgeStyle=orthogonalEdgeStyle;rounded=0;orthogonalLoop=1;jettySize=auto;html=1;startArrow=none;startFill=0;" edge="1" parent="OYy-x_k3-v6llGjaAuk5-220" source="OYy-x_k3-v6llGjaAuk5-227" target="OYy-x_k3-v6llGjaAuk5-229">
          <mxGeometry relative="1" as="geometry" />
        </mxCell>
        <mxCell id="OYy-x_k3-v6llGjaAuk5-227" value="通话" style="rounded=1;whiteSpace=wrap;html=1;fillColor=#dae8fc;strokeColor=#6c8ebf;" vertex="1" parent="OYy-x_k3-v6llGjaAuk5-220">
          <mxGeometry x="-0.5" y="670" width="120" height="60" as="geometry" />
        </mxCell>
        <mxCell id="OYy-x_k3-v6llGjaAuk5-228" style="edgeStyle=orthogonalEdgeStyle;rounded=0;orthogonalLoop=1;jettySize=auto;html=1;startArrow=none;startFill=0;" edge="1" parent="OYy-x_k3-v6llGjaAuk5-220" source="OYy-x_k3-v6llGjaAuk5-229" target="OYy-x_k3-v6llGjaAuk5-230">
          <mxGeometry relative="1" as="geometry" />
        </mxCell>
        <mxCell id="OYy-x_k3-v6llGjaAuk5-229" value="&lt;p class=&quot;MsoNormal&quot;&gt;挂机&lt;/p&gt;" style="rounded=1;whiteSpace=wrap;html=1;fillColor=#dae8fc;strokeColor=#6c8ebf;" vertex="1" parent="OYy-x_k3-v6llGjaAuk5-220">
          <mxGeometry y="959" width="120" height="60" as="geometry" />
        </mxCell>
        <mxCell id="OYy-x_k3-v6llGjaAuk5-230" value="通话结束" style="rounded=1;whiteSpace=wrap;html=1;fillColor=#dae8fc;strokeColor=#6c8ebf;" vertex="1" parent="OYy-x_k3-v6llGjaAuk5-220">
          <mxGeometry y="1087" width="120" height="60" as="geometry" />
        </mxCell>
      </root>
    </mxGraphModel>
  </diagram>
</mxfile>
